<svg width="171" height="536" fill="none" xmlns="http://www.w3.org/2000/svg">
  <path d="M.546 528.98a1.5 1.5 0 00.9 1.921l12.696 4.59a1.5 1.5 0 001.02-2.821l-11.285-4.08 4.08-11.285a1.5 1.5 0 00-2.821-1.02L.546 528.98zM62.096 3.983c35.095-3.286 62.74 20.758 81.049 61.184 18.293 40.389 27.019 96.707 24.346 156.786-5.351 120.248-56.288 254.653-166.172 306.179l1.274 2.716c111.386-52.229 162.525-188.074 167.895-308.762 2.687-60.389-6.065-117.211-24.61-158.157C127.35 23.019 98.798-2.467 61.817.997l.28 2.986z" fill="url(#paint0_linear)"/>
  <defs>
    <linearGradient id="paint0_linear" x1="161.079" y1="312.148" x2="-29.268" y2="238.606" gradientUnits="userSpaceOnUse">
      <stop stop-color="#0061FF"/>
      <stop offset=".938" stop-color="#D50499"/>
    </linearGradient>
  </defs>
</svg>
