<svg width="804" height="786" fill="none" xmlns="http://www.w3.org/2000/svg">
  <path clip-rule="evenodd" d="M353.784 122.224c47.595-12.558 90.165-53.804 139.07-37.69 53.622 17.667 96.951 70.456 131.491 126.836 39.057 63.754 94.136 140.624 76.32 212.377-18.439 74.263-113.409 55.91-156.384 110.074-40.913 51.564-23.827 169.04-80.813 188.879-55.357 19.272-108.259-59.524-157.11-106.049-39.783-37.888-68.235-86.195-97.773-136.698-34.315-58.67-91.911-112.087-88.177-181.232 3.732-69.121 59.891-109.145 105.728-143.81 37.365-28.258 84.105-21.197 127.648-32.687z" stroke="url(#paint0_linear)" stroke-width="6" stroke-linecap="round" stroke-dasharray="50 40 60 50 40 60"/>
  <path clip-rule="evenodd" d="M398.125 114.125c47.595-12.559 90.165-53.805 139.07-37.691C590.817 94.1 634.146 146.89 668.686 203.27c39.057 63.754 94.136 140.624 76.32 212.377-18.44 74.263-113.409 55.909-156.385 110.073-40.912 51.565-23.826 169.04-80.812 188.879-55.357 19.272-108.259-59.523-157.111-106.048-39.782-37.888-68.235-86.196-97.772-136.698-34.315-58.67-91.911-112.087-88.177-181.232 3.732-69.122 59.891-109.145 105.728-143.811 37.365-28.258 84.105-21.197 127.648-32.686z" stroke="url(#paint1_linear)" stroke-width="4" stroke-linecap="round" stroke-dasharray="50 40 60 50 40 60"/>
  <path clip-rule="evenodd" d="M267.075 96.961c47.595-12.558 90.165-53.805 139.07-37.691 53.622 17.667 96.951 70.457 131.491 126.837 39.057 63.754 94.136 140.624 76.32 212.377-18.44 74.263-113.409 55.909-156.385 110.074-40.912 51.564-23.826 169.039-80.812 188.878-55.357 19.272-108.259-59.523-157.111-106.048-39.782-37.888-68.235-86.196-97.772-136.698-34.315-58.67-91.911-112.087-88.178-181.232 3.733-69.122 59.892-109.145 105.729-143.811 37.365-28.258 84.105-21.197 127.648-32.686z" stroke="url(#paint2_linear)" stroke-width="6" stroke-linecap="round" stroke-dasharray="50 40 60 50 40 60"/>
  <path clip-rule="evenodd" d="M295.056 114.269c47.594-12.558 90.165-53.805 139.07-37.691 53.621 17.667 96.951 70.457 131.49 126.837 39.058 63.754 94.137 140.624 76.321 212.377-18.44 74.263-113.409 55.909-156.385 110.074-40.913 51.564-23.827 169.039-80.812 188.879-55.357 19.271-108.26-59.524-157.111-106.049-39.782-37.888-68.235-86.195-97.773-136.698-34.314-58.67-91.91-112.087-88.177-181.232 3.733-69.121 59.892-109.145 105.729-143.811 37.365-28.258 84.105-21.196 127.648-32.686z" stroke="url(#paint3_linear)" stroke-width="6" stroke-linecap="round" stroke-dasharray="50 40 60 50 40 60"/>
  <defs>
    <linearGradient id="paint0_linear" x1="157.871" y1="522.106" x2="697.548" y2="320.959" gradientUnits="userSpaceOnUse">
      <stop offset=".042" stop-color="#12C2E9"/>
      <stop offset=".391" stop-color="#C471ED"/>
      <stop offset=".749" stop-color="#F64F59"/>
    </linearGradient>
    <linearGradient id="paint1_linear" x1="202.212" y1="514.007" x2="741.889" y2="312.86" gradientUnits="userSpaceOnUse">
      <stop offset=".042" stop-color="#12C2E9"/>
      <stop offset=".391" stop-color="#C471ED"/>
      <stop offset=".749" stop-color="#F64F59"/>
    </linearGradient>
    <linearGradient id="paint2_linear" x1="71.162" y1="496.843" x2="610.839" y2="295.696" gradientUnits="userSpaceOnUse">
      <stop offset=".042" stop-color="#12C2E9"/>
      <stop offset=".391" stop-color="#C471ED"/>
      <stop offset=".749" stop-color="#F64F59"/>
    </linearGradient>
    <linearGradient id="paint3_linear" x1="99.143" y1="514.151" x2="638.82" y2="313.004" gradientUnits="userSpaceOnUse">
      <stop offset=".042" stop-color="#12C2E9"/>
      <stop offset=".391" stop-color="#C471ED"/>
      <stop offset=".749" stop-color="#F64F59"/>
    </linearGradient>
  </defs>
</svg>
