<svg width="1126" height="1200" fill="none" xmlns="http://www.w3.org/2000/svg">
  <path clip-rule="evenodd" d="M688.775 865.45c-53.627 42.996-87.858 114.218-156.241 126.719-74.978 13.711-153.19-17.263-222.079-57.56-77.901-45.569-181.79-95.597-192.401-184.892-10.983-92.42 115.891-130.819 144.715-216.393 27.44-81.468-47.636-199.202 14.375-255.925 60.238-55.101 162.293-1.631 244.527 19.102 66.967 16.884 124.569 52.114 184.529 89.072 69.657 42.936 165.954 65.812 192.94 143.596 26.976 77.756-24.765 156.005-66.083 222.054-33.681 53.84-95.22 74.891-144.282 114.227z" stroke="url(#paint0_linear)" stroke-width="4" stroke-linecap="round" stroke-dasharray="50 40 60 50 40 60"/>
  <path clip-rule="evenodd" d="M637.167 901.575c-53.627 42.996-87.858 114.215-156.241 126.715-74.978 13.71-153.19-17.26-222.08-57.556-77.9-45.568-181.79-95.597-192.4-184.892-10.983-92.419 115.89-130.818 144.715-216.393 27.44-81.467-47.636-199.202 14.375-255.924 60.238-55.101 162.293-1.632 244.526 19.101 66.968 16.884 124.57 52.114 184.53 89.073 69.657 42.936 165.954 65.812 192.939 143.595 26.977 77.757-24.765 156.006-66.083 222.055-33.68 53.84-95.22 74.891-144.281 114.226z" stroke="url(#paint1_linear)" stroke-width="6" stroke-linecap="round" stroke-dasharray="50 40 60 50 40 60"/>
  <path clip-rule="evenodd" d="M808.506 839.677c-53.627 42.996-87.858 114.218-156.241 126.719-74.978 13.706-153.19-17.263-222.079-57.561-77.901-45.568-181.79-95.596-192.401-184.891-10.983-92.42 115.891-130.819 144.715-216.394 27.441-81.467-47.635-199.202 14.375-255.924 60.238-55.101 162.294-1.631 244.527 19.101 66.967 16.884 124.569 52.114 184.529 89.073 69.657 42.936 165.954 65.812 192.939 143.596 26.98 77.756-24.764 156.005-66.082 222.054-33.681 53.84-95.22 74.891-144.282 114.227z" stroke="url(#paint2_linear)" stroke-width="6" stroke-linecap="round" stroke-dasharray="50 40 60 50 40 60"/>
  <path clip-rule="evenodd" d="M765.679 837.998c-53.627 42.996-87.858 114.219-156.241 126.719-74.977 13.707-153.19-17.263-222.079-57.56-77.901-45.568-181.79-95.597-192.401-184.892-10.983-92.419 115.891-130.818 144.715-216.393 27.441-81.467-47.635-199.202 14.375-255.924 60.238-55.101 162.294-1.632 244.527 19.101 66.967 16.884 124.569 52.114 184.529 89.073 69.658 42.936 165.954 65.812 192.94 143.595 26.976 77.757-24.765 156.006-66.083 222.055-33.681 53.84-95.22 74.891-144.282 114.226z" stroke="url(#paint3_linear)" stroke-width="6" stroke-linecap="round" stroke-dasharray="50 40 60 50 40 60"/>
  <defs>
    <linearGradient id="paint0_linear" x1="683.963" y1="899.196" x2="257.624" y2="290.133" gradientUnits="userSpaceOnUse">
      <stop stop-color="#00B3FF"/>
      <stop offset=".484" stop-color="#B21F1F" stop-opacity=".744"/>
      <stop offset=".979" stop-color="#FDBB2D"/>
    </linearGradient>
    <linearGradient id="paint1_linear" x1="632.355" y1="935.322" x2="206.015" y2="326.258" gradientUnits="userSpaceOnUse">
      <stop stop-color="#00B3FF"/>
      <stop offset=".484" stop-color="#B21F1F" stop-opacity=".744"/>
      <stop offset=".979" stop-color="#FDBB2D"/>
    </linearGradient>
    <linearGradient id="paint2_linear" x1="803.694" y1="873.423" x2="377.355" y2="264.36" gradientUnits="userSpaceOnUse">
      <stop stop-color="#00B3FF"/>
      <stop offset=".484" stop-color="#B21F1F" stop-opacity=".744"/>
      <stop offset=".979" stop-color="#FDBB2D"/>
    </linearGradient>
    <linearGradient id="paint3_linear" x1="760.867" y1="871.745" x2="334.528" y2="262.681" gradientUnits="userSpaceOnUse">
      <stop stop-color="#00B3FF"/>
      <stop offset=".484" stop-color="#B21F1F" stop-opacity=".744"/>
      <stop offset=".979" stop-color="#FDBB2D"/>
    </linearGradient>
  </defs>
</svg>
