<svg width="570" height="153" fill="none" xmlns="http://www.w3.org/2000/svg">
  <path d="M3 152.569c-1.855 0-2.783-.358-2.783-1.074 0-.439.26-.944.781-1.514 1.156-1.269 2.572-2.457 4.248-3.564 1.66-1.091 3.548-2.197 5.664-3.32 4.72-8.008 9.277-22.315 13.672-42.92a933.186 933.186 0 005.884-29.859c1.107-6.168 2.173-12.24 3.198-18.212a1662.23 1662.23 0 013.418-19.166c2.002-10.807 3.906-18.92 5.713-24.34.797-2.344 1.66-4.232 2.588-5.664C46.408 1.406 47.8.616 49.558.567c1.79.098 3.076 1.083 3.857 2.954.18.554.269 1.042.269 1.465 0 .407-.09.749-.269 1.026-.39.52-.968.781-1.733.781-.391 0-.798-.057-1.221-.17a7.647 7.647 0 00-1.709-.196c-1.205.032-2.238 1.408-3.1 4.126-.44 1.367-.953 3.28-1.539 5.737l-.488 2.002c-1.27 5.176-2.555 11.206-3.857 18.09a2157.804 2157.804 0 00-4.053 22.047l-2.246 12.45a921.07 921.07 0 01-5.86 29.933c-2.083 9.765-4.345 18.587-6.787 26.464-1.448 4.476-3.418 9.237-5.908 14.283a283.108 283.108 0 017.568-3.321 103.137 103.137 0 018.472-3.125c6.917-2.181 14.372-4.199 22.363-6.054a276.364 276.364 0 0123.902-4.419c10.644-1.416 20.288-2.124 28.93-2.124 4.33 0 8.407.179 12.232.537 5.664.602 10.213 1.766 13.647 3.491 3.614 1.628 5.42 3.849 5.42 6.665v.562c-.244 1.578-.805 2.368-1.684 2.368-.277 0-.529-.106-.757-.318-.423-.358-.635-1.033-.635-2.026l.024-.22c0-1.074-.455-2.148-1.367-3.222-.911-1.058-1.888-1.848-2.929-2.369-1.384-.699-3.068-1.367-5.054-2.002-4.15-1.302-11.108-1.953-20.874-1.953-1.4 0-4.142.041-8.228.122-4.069.082-10.001.643-17.797 1.685-12.891 1.839-28.305 5.648-46.24 11.426a119.592 119.592 0 00-18.702 7.812c-.081.13-.155.277-.22.44a4.089 4.089 0 01-.244.464c-1.48 2.278-3.117 4.012-4.907 5.2-1.497.927-3.109 1.391-4.834 1.391zm115.674-18.481c-1.205 0-2.873-4.362-5.005-13.086-1.253-5.127-2.271-11.287-3.052-18.481-.635-5.844-.952-12.289-.952-19.336 0-4.509.13-9.156.391-13.94.146-2.67.423-6.406.83-11.207-3.776 9.652-7.959 18.286-12.55 25.903-2.147 3.581-4.223 6.714-6.225 9.4-1.985 2.67-4.004 4.81-6.054 6.42l-.464.391c-2.181 1.791-4.598 2.881-7.251 3.272a7.877 7.877 0 01-.855.049c-2.213 0-4.101-.83-5.664-2.491-1.692-1.774-2.539-4.345-2.539-7.714l.025-.83c.179-2.8.602-5.209 1.27-7.227.683-2.035 1.497-3.703 2.44-5.005.944-1.318 1.921-2.303 2.93-2.954.895-.635 1.831-.952 2.808-.952h.293c1.188.195 2.018.675 2.49 1.44.488.765.732 1.514.732 2.246v.318c-.179 1.676-.838 2.986-1.977 3.93-1.22 1.026-2.352 1.644-3.394 1.856a7.761 7.761 0 01-1.562.17c-.456 0-.887-.048-1.294-.146l-.195-.024c-.18 0-.293.106-.342.317-.57 1.774-.952 3.841-1.148 6.201l-.024.757c0 2.946.537 5.046 1.611 6.3 1.026 1.187 2.279 1.781 3.76 1.781l.733-.024c2.197-.244 4.158-1.034 5.883-2.368 4.02-3.174 8.277-8.464 12.769-15.87 5.403-8.951 10.18-19.197 14.331-30.737.211-1.513.382-3.076.513-4.687-7.992.52-14.86 1.082-20.606 1.684-5.73.586-9.391 1.131-10.986 1.636l.293.269c.146.179.22.358.22.537 0 .162-.098.309-.293.44-.505.357-1.416.536-2.735.536-.228 0-.683-.016-1.367-.049-.667-.048-1.44-.227-2.32-.537-.862-.309-1.342-.716-1.44-1.22 0-.456.399-.855 1.196-1.197 1.4-.57 3.264-1 5.591-1.294 10.205-1.253 21.102-2.18 32.691-2.783.748-6.217 1.44-10.937 2.075-14.16.244-1.725.635-3.084 1.172-4.077.537-.993 1.098-1.49 1.684-1.49.716 0 1.294.814 1.734 2.442.228.667.342 2.026.342 4.077 0 4.102-.603 8.407-1.807 12.915a679.76 679.76 0 005.884-.268c15.755-.586 29.451-.928 41.089-1.026.585.18.878.456.878.83 0 .277-.13.554-.39.83l-.391.391a282.013 282.013 0 00-8.569-.122c-11.458 0-24.471.448-39.038 1.343a40.427 40.427 0 01-2.417 6.128 136.69 136.69 0 01-.488 3.589c-.293 1.936-.57 4.28-.831 7.03-.26 2.752-.504 6.991-.732 12.72-.212 4.965-.317 9.457-.317 13.477 0 4.2.162 8.659.488 13.379.342 4.72 1.253 9.969 2.734 15.747.44 1.742.969 3.247 1.587 4.517a47.461 47.461 0 001.831 3.393c.602.977 1.074 1.864 1.416 2.661.212.538.318 1.058.318 1.563 0 .26-.025.513-.074.757-.358 1.107-.919 1.66-1.684 1.66zm-43.018-49.34c1.221 0 2.385-.546 3.491-1.637.847-.879 1.27-1.815 1.27-2.807 0-.814-.374-1.221-1.123-1.221-.912 0-2.018.846-3.32 2.54a17.602 17.602 0 00-1.465 2.245c-.098.163-.147.301-.147.415a.39.39 0 00.098.244c.081.082.236.139.464.171.244.033.488.05.732.05zm63.697-32.496a.855.855 0 01-.269-.049c-.195-.146-.366-.496-.513-1.05a3.342 3.342 0 01-.097-.854c0-.57.089-1.27.268-2.1.114-.748.171-1.497.171-2.246 0-1.4-.179-2.8-.537-4.2-.195-.585-.293-1.106-.293-1.562 0-.732.252-1.294.757-1.684l.171-.025c.862.017 1.44.562 1.733 1.636.293 1.172.44 2.523.44 4.053 0 2.018-.293 4.248-.879 6.69-.244.927-.562 1.391-.952 1.391zm21.289 57.129c-.944 0-1.709-.277-2.295-.83a2.537 2.537 0 01-.733-1.343 7.73 7.73 0 01-.097-1.221c0-1.774.545-3.556 1.635-5.346.928-1.351 1.774-2.401 2.539-3.15l-.805-.39a63.9 63.9 0 00-2.051-.88 40.969 40.969 0 01-5.811-2.685c-3.743-2.083-5.615-5.143-5.615-9.18 0-.618.041-1.26.122-1.928.391-1.937 1.131-3.557 2.222-4.859 1.09-1.302 2.352-2.278 3.784-2.93 1.432-.65 2.857-.976 4.273-.976 1.399.016 2.823.366 4.272 1.05a8.931 8.931 0 013.54 2.954c.586.96.879 2.246.879 3.857l-.024 1.319c0 .846-.391 1.676-1.172 2.49l-.269.122a2.896 2.896 0 01-.659.195c-.26.05-.513.074-.757.074-.065 0-.203-.008-.415-.025-.195-.016-.456-.114-.781-.293-.326-.195-.619-.512-.879-.952a2.765 2.765 0 01-.317-1.245c0-.39.13-.879.39-1.465a8.274 8.274 0 01.977-1.684c.407-.538.61-1.034.61-1.49 0-.195-.041-.48-.122-.854-.081-.39-.448-.79-1.099-1.197-.651-.406-1.676-.61-3.076-.61-1.025 0-2.124.293-3.296.88-1.155.585-2.213 1.407-3.174 2.465-1.399 1.579-2.099 3.459-2.099 5.64 0 1.204.293 2.376.879 3.515.602 1.14 1.636 2.19 3.1 3.15 1.465.944 3.133 1.774 5.005 2.49a74.016 74.016 0 014.102 1.758c5.68-4.427 10.954-7.74 15.82-9.937a.65.65 0 01.293-.073c.13 0 .269.057.415.17a.788.788 0 01.318.66.533.533 0 01-.196.415c-5.859 2.54-10.945 5.697-15.259 9.473l.074.024c1.757 1.14 2.636 2.865 2.636 5.176 0 .211-.032.635-.097 1.269-.049.651-.277 1.376-.684 2.173-.553 1.074-1.245 1.937-2.075 2.588-1.351 1.091-2.694 1.636-4.028 1.636zm-.342-2.588c.293 0 .683-.13 1.172-.391.488-.26 1.009-.659 1.562-1.196.554-.521.944-.993 1.172-1.416.244-.407.464-.928.659-1.562.082-.31.122-.619.122-.928 0-.358-.081-.806-.244-1.343-.146-.537-.7-1.115-1.66-1.733-1.367 1.367-2.295 2.441-2.783 3.222-.505.847-.847 1.823-1.026 2.93a4.9 4.9 0 00-.073.781c0 .684.187 1.18.562 1.489.162.098.341.147.537.147zm91.968 33.496c-4.151 0-8.187-.789-12.11-2.368-3.922-1.579-7.519-4.037-10.791-7.373-6.608-6.738-10.945-16.236-13.013-28.491a68.817 68.817 0 01-.805-10.596c0-4.98.692-11.084 2.075-18.31 1.4-7.243 4.378-15.097 8.936-23.56a78.24 78.24 0 0113.72-17.945 42.37 42.37 0 00-2.49-.39c-4.753-.57-7.495-1.229-8.228-1.978l-.073-.195a1.469 1.469 0 01-.171-.708c0-.114.017-.252.049-.415.049-.18.163-.366.342-.562.195-.211.488-.382.879-.512.423-.244 1.033-.415 1.831-.513.212-.033.431-.049.659-.049.651 0 1.449.147 2.393.44.944.276 2.05.944 3.32 2.002 1.514.309 2.71.545 3.589.708 8.008-7.39 16.976-12.102 26.904-14.136 3.272-.635 6.991-.952 11.157-.952 5.957 0 10.726.618 14.307 1.855 2.555.895 4.02 2.14 4.395 3.736.032.162.048.325.048.488 0 1.758-1.993 3.613-5.981 5.566-3.792 1.92-8.83 3.605-15.112 5.054-4.997 1.14-10.45 1.864-16.358 2.173a78.286 78.286 0 01-4.394.122c-4.509 0-9.115-.358-13.819-1.074-5.615 5.29-10.343 11.401-14.184 18.335-4.427 8.252-7.503 16.845-9.229 25.78-1.009 5.21-1.513 10.247-1.513 15.113 0 3.483.26 6.877.781 10.181 1.872 10.97 6.225 19.889 13.061 26.758 3.028 3.092 6.397 5.452 10.108 7.08 3.32 1.448 6.844 2.173 10.571 2.173l1.343-.025c7.096-.439 14.095-2.864 20.996-7.275 6.901-4.395 13.444-10.376 19.629-17.945 6.185-7.568 11.776-16.324 16.772-26.27.326-.52.668-.78 1.026-.78.032 0 .154.016.366.049.211.016.423.227.635.634.097.196.146.39.146.586 0 .244-.065.497-.195.757-6.413 11.865-13.029 21.639-19.849 29.321-6.819 7.699-13.623 13.461-20.41 17.285-7.357 4.151-14.461 6.226-21.313 6.226zm6.836-108.911c1.285 0 3.653-.09 7.104-.269 3.451-.195 7.479-.822 12.085-1.88 6.25-1.367 11.19-2.905 14.819-4.614l.415-.22c1.351-.683 2.442-1.326 3.272-1.928.732-.521 1.098-1.066 1.098-1.636 0-.586-.447-1.155-1.342-1.709-2.425-1.53-7.137-2.295-14.136-2.295-4.134 0-8.276.326-12.427.977-8.919 1.823-17.041 5.932-24.365 12.329 4.574.83 9.066 1.245 13.477 1.245zm86.962 104.004c-.504 0-.927-.399-1.269-1.196-1.611-4.541-2.905-10.954-3.882-19.239-.96-8.268-1.465-17.602-1.514-28.003 0-6.2.139-11.775.415-16.723.277-4.965.692-10.254 1.246-15.87-1.905 3.907-3.988 7.414-6.25 10.523-2.247 3.093-4.493 5.689-6.739 7.788-2.653 2.507-5.045 4.142-7.177 4.907 1.367 2.198 2.213 5.282 2.539 9.253.032.521.048 1.05.048 1.587 0 2.36-.309 4.305-.927 5.835-.472 1.156-1.05 2.01-1.734 2.564a8.73 8.73 0 01-1.44.878c-.488.245-1.042.367-1.66.367h-.122c-1.286-.13-2.295-.651-3.028-1.563-.765-.83-1.359-1.92-1.782-3.271-.342-1.432-.513-3.028-.513-4.785 0-5.013.887-9.335 2.661-12.964.261-.44.497-.66.708-.66.163 0 .318.13.464.391.31-.065.619-.097.928-.097 1.091 0 2.051.415 2.881 1.245.163-.033.325-.082.488-.147 1.839-.635 4.069-2.165 6.69-4.59 2.555-2.392 5.118-5.46 7.69-9.204 2.572-3.76 4.834-8.024 6.787-12.793.147-1.09.334-2.913.562-5.468.342-3.956 1.172-9.962 2.49-18.018.651-3.695 1.611-5.542 2.881-5.542.683 0 1.253.806 1.709 2.417.211.765.317 2.108.317 4.028 0 6.266-1.505 13.298-4.516 21.094l-.879 7.837a430.81 430.81 0 00-1.538 14.844c-.424 4.573-.635 9.367-.635 14.38l.049 7.69-.025 5.957c0 3.092.082 6.16.244 9.204.179 3.06.725 7.471 1.636 13.233.472 2.88 1.327 5.737 2.564 8.569.699 1.595 1.049 2.75 1.049 3.467l-.024.39c-.228 1.123-.692 1.685-1.392 1.685zm-27.392-39.429c.602 0 1.115-.236 1.538-.708.423-.456.732-1.009.928-1.66a16.712 16.712 0 00.708-6.934 25.175 25.175 0 00-.904-4.907c-.455-1.579-1.025-2.848-1.709-3.808h-.341c-.977 0-1.758-.326-2.344-.977-.586 2.181-.993 4.688-1.221 7.52-.081.878-.122 1.75-.122 2.612 0 1.904.187 3.76.562 5.566.374 1.123.789 1.929 1.245 2.417.472.489.822.757 1.049.806.228.049.432.073.611.073zm83.056 14.893c-.309 0-.74-.057-1.293-.171-.538-.098-.985-.57-1.343-1.416a3.923 3.923 0 01-.171-1.148c0-.83.309-1.782.928-2.856a8.92 8.92 0 012.49-2.759 35.656 35.656 0 014.761-2.905 135.773 135.773 0 015.151-2.49 101.705 101.705 0 005.664-2.76c.423-.357.773-.894 1.05-1.61.797-2.393 1.196-4.37 1.196-5.933 0-.456-.032-.87-.098-1.245-.293-2.019-.846-3.353-1.66-4.004-1.058-.781-2.441-1.172-4.15-1.172-1.481 0-2.84.44-4.077 1.318a9.96 9.96 0 00-2.954 3.272c-.733 1.286-1.579 3.401-2.539 6.347a23.71 23.71 0 00-.855 3.663c-.163.992-.317 2.425-.464 4.296-.163.554-.464.953-.903 1.197a1.416 1.416 0 01-.733.219c-.195 0-.447-.065-.756-.195-.293-.13-.497-.553-.611-1.27-.081-.634-.122-1.619-.122-2.954 0-7.112.619-18.147 1.856-33.105.472-5.664.895-10.189 1.269-13.574-3.727 11.735-7.593 21.492-11.596 29.272-3.077 6.006-5.835 10.205-8.277 12.598-1.204 1.156-2.466 1.912-3.784 2.27-.293.082-.57.123-.83.123-1.025 0-1.807-.578-2.344-1.734-.407-1.009-.61-2.262-.61-3.76 0-.114.008-.61.024-1.489.033-.879.171-2.059.415-3.54.244-1.497.464-2.555.659-3.174.163-.537.245-.87.245-1 0-.05-.017-.074-.049-.074-.033 0-.098.073-.196.22a26.975 26.975 0 01-1.66 2.417l-1.318 1.855c-4.59 6.624-8.814 9.937-12.671 9.937a6.666 6.666 0 01-3.613-1.026c-1.074-.683-1.807-1.66-2.198-2.93a5.34 5.34 0 01-.219-1.537c0-.863.236-1.937.708-3.223.488-1.286 1.603-2.832 3.344-4.639a17.768 17.768 0 014.883-3.515c2.93-1.416 5.607-2.124 8.033-2.124 1.611 0 2.84.341 3.686 1.025.244.277.431.675.562 1.196v-.049c.765-1.253 1.31-2.026 1.635-2.319a.162.162 0 01.074-.073c.195-.277.651-.44 1.367-.488l.586.097c.439.114.659.619.659 1.514s-.244 2.677-.733 5.347c-.667 3.597-1.001 6.25-1.001 7.959 0 .78.066 1.464.196 2.05.13.57.456.855.976.855.472 0 1.213-.448 2.222-1.343 2.23-2.132 4.875-6.16 7.935-12.085 2.522-4.883 5.045-10.693 7.568-17.431 2.523-6.739 4.834-14.071 6.934-21.998l1.074-5.981c.879-5.143 1.774-9.204 2.685-12.183.521-.618 1.018-.927 1.49-.927.52 0 .952.22 1.294.659.358.423.561.83.61 1.22-2.051 6.723-3.581 13.119-4.59 19.19-1.904 11.426-3.231 26.929-3.979 46.509a39.262 39.262 0 00-.049 1.733c1.562-3.792 3.466-6.575 5.713-8.35 2.083-1.578 4.256-2.368 6.518-2.368 1.611 0 3.093.489 4.444 1.465 1.578 1.205 2.547 3.003 2.905 5.396.065.472.097.96.097 1.465 0 1.27-.187 2.66-.561 4.174-.098.391-.147.7-.147.928 0 .244.09.366.269.366.13 0 4.785-2.1 13.965-6.299.26-.114.48-.17.659-.17.163 0 .301.048.415.146a.88.88 0 01.317.708c0 .049-.024.18-.073.39-.032.212-.236.448-.61.709l-3.906 1.538c-2.605 1.041-6.576 2.75-11.914 5.127-1.091 1.725-2.564 3.71-4.419 5.957-1.84 2.262-3.606 4.085-5.298 5.469-2.149 1.676-4.183 2.994-6.104 3.955-1.676.83-3.027 1.245-4.053 1.245zM361.936 91.51c1.79-.114 3.71-1.05 5.761-2.808a28.915 28.915 0 005.2-5.762 55.084 55.084 0 002.808-4.492c-.537.163-.968.244-1.294.244l-.39-.024c-.375-.049-.733-.358-1.075-.928a2.483 2.483 0 00-.61-.708c-.244-.228-.692-.342-1.343-.342-2.555.57-5.412 2.417-8.569 5.542-2.149 2.165-3.223 4.273-3.223 6.324 0 .927.293 1.692.879 2.295.44.439 1.058.659 1.856.659zm39.575 16.04c.797 0 1.766-.236 2.905-.708 1.693-.83 3.556-2.035 5.591-3.613 1.986-1.596 3.711-3.223 5.176-4.883.569-.603.854-.96.854-1.075l-.049-.024c-.423.098-1.424.52-3.003 1.27-4.313 2.034-7.519 3.784-9.619 5.249-1.969 1.464-2.954 2.514-2.954 3.149 0 .423.366.635 1.099.635zm50.952-1.026c-2.083 0-3.516-1.139-4.297-3.418-.505-1.578-.895-3.434-1.172-5.566-.26-2.132-.472-4.167-.635-6.104a44.18 44.18 0 00-.171-1.83c-.032-.765-.301-1.27-.805-1.514-.488-.244-1.432-.464-2.832-.66-.83-.13-1.872-.309-3.125-.537l-.977-.17a9.939 9.939 0 01-2.075-.489c-.635-.228-1.221-.667-1.758-1.318-.602-.814-.903-1.7-.903-2.661 0-.407.122-1.09.366-2.05.244-.977 1.066-1.873 2.466-2.686.537-.277 1.05-.415 1.538-.415 1.253 0 2.083.65 2.49 1.953.114.309.171.65.171 1.025 0 .635-.163 1.343-.488 2.124-.228.586-.342 1.074-.342 1.465 0 1.009 1.164 1.546 3.491 1.611.733.033 1.457.106 2.173.22 1.774.277 2.857 1.204 3.247 2.783.228.879.391 2.026.488 3.442v.123c.342 4.361.953 7.885 1.832 10.571.423 1.107 1.09 1.66 2.001 1.66.082 0 .407-.033.977-.098.586-.048 1.392-.626 2.417-1.733 3.613-3.906 6.649-8.92 9.106-15.04.424-.846.863-1.269 1.319-1.269.374 0 .561.326.561.977v.293c-3.711 7.617-6.966 13.013-9.765 16.186-1.156 1.237-2.165 2.1-3.028 2.588-.797.358-1.554.537-2.27.537zm74.902 27.93c-1.22 0-2.889-4.362-5.005-13.086-1.253-5.127-2.27-11.287-3.051-18.481-.635-5.843-.953-12.289-.953-19.336 0-4.444.131-9.074.391-13.892.13-2.62.399-6.331.806-11.133-3.565 9.457-7.544 17.652-11.939 24.585-3.694 5.99-7.552 9.929-11.572 11.817-1.286.57-2.474.854-3.564.854-.749 0-1.693-.236-2.832-.708-1.14-.472-2.043-1.863-2.71-4.175-.424-1.627-.635-3.1-.635-4.418 0-1.693.244-3.272.732-4.737.163-.52.244-.854.244-1 0-.05-.008-.074-.024-.074-.049 0-.122.073-.22.22a23.578 23.578 0 01-1.636 2.441l-1.342 1.831c-1.433 2.067-3.158 4.102-5.176 6.104-2.49 2.571-4.997 3.857-7.52 3.857a7.002 7.002 0 01-3.588-.952c-1.091-.635-1.84-1.587-2.247-2.857a5.68 5.68 0 01-.195-1.513c0-.88.244-1.986.733-3.32.472-1.351 1.586-2.93 3.344-4.737 1.107-1.123 2.45-2.156 4.029-3.1a18.72 18.72 0 015.151-2.149c1.074-.26 2.165-.39 3.271-.39.782 0 1.571.065 2.369.195a5.56 5.56 0 011.44.659c.423.277.724.732.903 1.367l.171-.293c.407-.732.895-1.424 1.465-2.075.423-.39.92-.586 1.489-.586.407 0 .741.155 1.001.464.212.326.318.854.318 1.587 0 .895-.196 2.62-.586 5.176-.44 2.555-.668 4.882-.684 6.982.065 1.953.602 3.32 1.611 4.102.489.358 1.058.537 1.709.537.733 0 1.571-.22 2.515-.66 1.872-.91 3.589-2.205 5.151-3.881 1.579-1.677 3.459-4.102 5.64-7.276 2.718-3.939 5.192-8.439 7.422-13.5 2.246-5.063 4.354-10.426 6.323-16.09.244-1.578.423-3.222.537-4.931-8.903.537-16.626 1.131-23.169 1.782-6.543.635-10.693 1.229-12.451 1.782l.318.269c.13.179.195.35.195.512 0 .163-.098.31-.293.44-.505.374-1.408.561-2.71.561-.244 0-.708-.016-1.392-.048-.667-.05-1.44-.228-2.319-.537-.879-.31-1.359-.717-1.44-1.221 0-.456.398-.855 1.196-1.196 1.318-.57 3.182-1.001 5.591-1.294 11.474-1.4 23.714-2.401 36.719-3.003.732-6.12 1.416-10.767 2.05-13.94.228-1.742.611-3.101 1.148-4.078.537-.976 1.098-1.473 1.684-1.49.456 0 .83.261 1.123.782.407.733.684 1.555.83 2.466.098.667.147 1.79.147 3.37 0 3.954-.586 8.17-1.758 12.646.098-.017.204-.025.318-.025l1.513-.073c15.755-.602 29.452-.952 41.089-1.05.57.212.855.513.855.903 0 .228-.123.489-.367.782l-.415.39c-2.75-.081-5.713-.122-8.886-.122-9.782 0-21.33.366-34.644 1.099-.488 1.628-1.156 3.385-2.002 5.273-.163.358-.317.725-.464 1.099l-.171.879c-.96 4.98-1.595 12.467-1.904 22.46a449.111 449.111 0 00-.171 11.842c0 4.866.147 9.765.44 14.697.293 4.932 1.171 10.286 2.636 16.064.456 1.726.993 3.223 1.612 4.493a47.495 47.495 0 001.831 3.393c1.155 1.872 1.733 3.263 1.733 4.175 0 .277-.033.553-.098.83-.341 1.107-.895 1.66-1.66 1.66zm-55.371-41.357a7.067 7.067 0 002.93-.83c.928-.505 1.863-1.156 2.807-1.953 2.8-2.36 5.469-5.787 8.008-10.279-.374.098-.7.147-.976.147-.684 0-1.254-.35-1.709-1.05a3.23 3.23 0 00-.611-.635c-.228-.195-.537-.293-.927-.293-.147 0-.31.025-.489.073-2.311.619-4.394 1.547-6.25 2.784-1.839 1.236-3.279 2.677-4.321 4.32-.911 1.45-1.367 2.996-1.367 4.64l.024.683c.082.667.375 1.237.879 1.71.505.455 1.148.683 1.929.683h.073zm72.363 8.496c-2.197 0-3.922-.749-5.175-2.246-1.221-1.726-1.831-3.768-1.831-6.128l.024-.855c.081-3.027.521-5.72 1.318-8.08 1.27-3.81 3.052-6.454 5.347-7.935.911-.635 1.945-.953 3.101-.953 1.188.196 2.026.692 2.514 1.49.489.716.733 1.432.733 2.148-.131 1.856-.806 3.296-2.027 4.322-1.204 1.009-2.327 1.619-3.369 1.83a7.755 7.755 0 01-1.562.171c-.179 0-.668-.056-1.465-.17-.195 0-.318.114-.366.341-.57 1.758-.953 3.817-1.148 6.177v.757c-.032.423-.049.83-.049 1.22 0 1.742.301 3.199.904 4.37.716 1.01 1.806 1.514 3.271 1.514l.83-.024c3.044 0 7.455-2.352 13.233-7.056 4.524-3.825 6.909-5.94 7.153-6.347a.622.622 0 01.415-.171c.26 0 .456.114.586.342.098.13.146.268.146.415 0 .325-.211.683-.634 1.074l-6.299 5.664c-2.979 2.458-5.55 4.346-7.715 5.664-2.148 1.318-4.508 2.124-7.08 2.417a7.444 7.444 0 01-.855.049zm-.61-17.75c1.27 0 2.433-.544 3.491-1.635.847-.846 1.27-1.782 1.27-2.808-.049-.813-.407-1.22-1.074-1.22-.538 0-1.107.244-1.709.732-.521.456-1.075 1.058-1.661 1.807a17.662 17.662 0 00-1.464 2.246.96.96 0 00-.122.415.39.39 0 00.097.244c.065.081.22.138.464.17.244.034.48.05.708.05z" fill="url(#paint0_linear)"/>
  <defs>
    <linearGradient id="paint0_linear" x1="290.5" y1="-34" x2="290.5" y2="182" gradientUnits="userSpaceOnUse">
      <stop stop-color="#0061FF"/>
      <stop offset=".938" stop-color="#D50499"/>
    </linearGradient>
  </defs>
</svg>
